<svg xmlns="http://www.w3.org/2000/svg" viewBox="0 0 500 500" width="500" height="500">
  <rect width="500" height="500" rx="90" fill="#1b4a78" />

  <g fill="none" stroke="#ffffff" stroke-width="6" stroke-linecap="round" stroke-linejoin="round">
    <path d="M 30 150 L 90 150 C 130 150, 130 195, 160 195" />
    <path d="M 30 200 L 90 200 C 130 200, 130 220, 160 220" />
    <path d="M 30 250 L 160 250" />
    <path d="M 30 300 L 90 300 C 130 300, 130 280, 160 280" />
    <path d="M 30 350 L 90 350 C 130 350, 130 305, 160 305" />
  </g>

  <g fill="none" stroke="#ffffff" stroke-width="6" stroke-linecap="round" stroke-linejoin="round">
    <path d="M 260 250 L 430 250" />
    <path d="M 340 250 L 370 220 L 420 220" />
    <path d="M 340 250 L 370 280 L 420 280" />

    <path d="M 260 220 L 300 220 L 340 180 L 410 180" />
    <path d="M 340 180 L 340 130 L 370 100 L 400 100" />
    <path d="M 260 195 L 280 195 L 310 165 L 310 120 L 330 100 L 350 100" />
    <path d="M 310 165 L 360 165 L 380 145" />

    <path d="M 260 280 L 300 280 L 340 320 L 410 320" />
    <path d="M 340 320 L 340 370 L 370 400 L 400 400" />
    <path d="M 260 305 L 280 305 L 310 335 L 310 380 L 330 400 L 350 400" />
    <path d="M 310 335 L 360 335 L 380 355" />
  </g>

  <g fill="#ffffff">
    <circle cx="430" cy="250" r="7" />
    <circle cx="420" cy="220" r="7" />
    <circle cx="420" cy="280" r="7" />
    
    <circle cx="410" cy="180" r="7" />
    <circle cx="400" cy="100" r="7" />
    <circle cx="350" cy="100" r="7" />
    <circle cx="380" cy="145" r="7" />
    
    <circle cx="410" cy="320" r="7" />
    <circle cx="400" cy="400" r="7" />
    <circle cx="350" cy="400" r="7" />
    <circle cx="380" cy="355" r="7" />
  </g>

  <g fill="#ffffff">
    <circle cx="445" cy="130" r="6" />
    <circle cx="400" cy="65" r="5" />
    <circle cx="460" cy="170" r="8" />
    <circle cx="465" cy="205" r="4" />
    <circle cx="370" cy="60" r="4" />
    
    <circle cx="445" cy="370" r="6" />
    <circle cx="400" cy="435" r="5" />
    <circle cx="460" cy="330" r="8" />
    <circle cx="465" cy="295" r="4" />
    <circle cx="370" cy="440" r="4" />
  </g>

  <polygon points="155,140 265,175 265,325 155,360" fill="#ffffff" />

  <text x="210" y="278" font-family="-apple-system, BlinkMacSystemFont, 'Segoe UI', Roboto, Helvetica, Arial, sans-serif" font-weight="900" font-size="80" fill="#1b4a78" text-anchor="middle" letter-spacing="-3">Tr</text>
</svg>